# xmcd
#
# Track frame offsets:
#	150
#	13136
#	41147
#	58199
#	76778
#	100016
#	110992
#	128550
#	144265
#	160442
#	182255
#	197314
#	219023
#	235006
#	261988
#	285364
#
# Disc length: 4094 seconds
#
# Revision: 1
# Processed by: cddbd v1.5.2PL0 Copyright (c) Steve Scherf et al.
# Submitted via: audiograbber 1.83.01
#
DISCID=d00ffc10
DTITLE=Willy Michl - Bootlegger 2015 - Original Hits
DYEAR=2015
DGENRE=
TTITLE0=Wakan Tanka
TTITLE1=High Fly
TTITLE2=Schwabing
TTITLE3=Sonnenuntergang
TTITLE4=Katmandu (California Vers.)
TTITLE5=Johnny B. Goode
TTITLE6=Opas Rap
TTITLE7=Protein Tango
TTITLE8=Stein der Weisen
TTITLE9=Zeche
TTITLE10=Bobfahrerlied
TTITLE11=Una Bela Signorina
TTITLE12=Willy's Liebeslied
TTITLE13=Nordische Mädchen
TTITLE14=Indianer
TTITLE15=Isarflimmern '88
EXTD=
EXTT0=
EXTT1=
EXTT2=
EXTT3=
EXTT4=
EXTT5=
EXTT6=
EXTT7=
EXTT8=
EXTT9=
EXTT10=
EXTT11=
EXTT12=
EXTT13=
EXTT14=
EXTT15=
PLAYORDER=
